<?xml version="1.0" encoding="utf-8"?>
<!-- Generator: Adobe Illustrator 25.1.0, SVG Export Plug-In . SVG Version: 6.00 Build 0)  -->
<svg version="1.1" id="Calque_3" xmlns="http://www.w3.org/2000/svg" xmlns:xlink="http://www.w3.org/1999/xlink" x="0px" y="0px"
	 viewBox="0 0 740.5 130.9" style="enable-background:new 0 0 740.5 130.9;" xml:space="preserve">
<style type="text/css">
	.st0{fill:#D1A16E;}
	.st1{fill:#FFFFFF;}
	.st2{fill-rule:evenodd;clip-rule:evenodd;fill:#FFFFFF;}
</style>
<g>
	<path class="st0" d="M84.2,57.6c0.5-0.9,3.2-6.3,3.3-10.1c0.1-3.1-0.4-6.1-1.4-8.8c-1.5-4.1-4.2-7.7-7.7-10.2
		c-3.5-2.6-7.7-4.2-12.3-4.3c-3.1-0.1-6,0.4-8.7,1.4c-4.1,1.6-7.6,4.3-10.1,7.8c-2.5,3.5-4.1,7.8-4.3,12.5c-0.1,2.5,0.3,4.9,1,7.1
		c0.5,1.7,1.3,3.3,2.1,4.8c1.3,2.3,2.9,4.4,4.7,6.5c1.8,2,3.8,4,5.9,5.9l0,0l0,0c2,1.7,3.9,3.4,5.7,5c1.3,1.2,2.6,2.4,3.7,3.6
		c1.7,1.7,3,3.4,3.8,4.9c0.4,0.8,0.7,1.5,0.9,2.1c0.2,0.7,0.3,1.3,0.2,1.8c-0.1,1.4,1,2.5,2.4,2.6c1.4,0.1,2.5-1,2.6-2.4
		c0-1-0.1-2.1-0.3-3.1c-0.4-1.7-1.3-3.3-2.3-4.9c-1.6-2.3-3.6-4.6-6-6.8c-2.3-2.2-4.9-4.4-7.5-6.7c-1.8-1.6-3.4-3.2-4.9-4.9
		c-2.3-2.5-4.1-5-5.3-7.5c-0.6-1.3-1.1-2.6-1.4-3.9c-0.3-1.3-0.4-2.7-0.4-4.1c0.1-2.4,0.7-4.7,1.6-6.8c1.4-3.1,3.7-5.7,6.6-7.5
		c2.8-1.8,6.2-2.8,9.8-2.6c2.4,0.1,4.7,0.7,6.7,1.6c3.1,1.4,5.6,3.8,7.4,6.6c1.8,2.9,2.7,6.3,2.6,9.9c-0.1,2-0.9,4.9-1.7,7
		L84.2,57.6L84.2,57.6z M45.2,73.7c-1.8,3.1-2.8,6.6-3,10.4c-0.1,3.1,0.4,6.1,1.4,8.8c1.5,4.1,4.2,7.7,7.7,10.2
		c3.5,2.6,7.7,4.2,12.3,4.3c3.1,0.1,6-0.4,8.7-1.4c4.1-1.6,7.6-4.3,10.1-7.8c2.5-3.5,4.1-7.8,4.3-12.4c0.1-2.5-0.3-4.9-1-7.1
		c-0.5-1.7-1.3-3.3-2.1-4.8c-1.3-2.3-2.9-4.4-4.7-6.5c-1.8-2-3.8-4-5.9-5.9l0,0l0,0c-2-1.7-3.9-3.4-5.7-5c-1.3-1.2-2.6-2.4-3.7-3.6
		c-1.7-1.7-3-3.4-3.8-4.9c-0.4-0.8-0.7-1.5-0.9-2.1c-0.2-0.7-0.3-1.3-0.2-1.8c0.1-1.4-1-2.5-2.4-2.6c-1.4-0.1-2.5,1-2.6,2.4
		c0,1,0.1,2.1,0.3,3.1c0.4,1.7,1.3,3.4,2.3,4.9c1.6,2.3,3.6,4.6,6,6.8c2.3,2.2,4.9,4.4,7.5,6.7c1.8,1.6,3.4,3.2,4.9,4.9
		c2.3,2.5,4.1,5,5.3,7.5c0.6,1.3,1.1,2.6,1.4,3.9c0.3,1.3,0.4,2.7,0.4,4.1c-0.1,2.4-0.7,4.7-1.6,6.8c-1.4,3.1-3.7,5.7-6.6,7.5
		c-2.8,1.8-6.2,2.8-9.8,2.6c-2.4-0.1-4.7-0.7-6.7-1.6c-3.1-1.5-5.6-3.8-7.4-6.6c-1.8-2.9-2.7-6.3-2.6-9.9c0.1-2.4,0.7-4.7,1.6-6.8
		c0-0.1,0.1-0.2,0.1-0.2L45.2,73.7L45.2,73.7z M55.9,69.7L55.9,69.7L55.9,69.7"/>
	<polygon class="st0" points="0.5,0.7 0.5,102.9 5.1,102.9 5.1,5.5 124.6,5.5 124.6,126.2 28.3,126.2 28.3,130.9 129.3,130.9 
		129.3,0.7 0.5,0.7 	"/>
	<path class="st1" d="M198.9,44.6c-2.6-2.1-5.8-3.1-9.8-3.1c-1.6,0-3.2,0.2-4.8,0.5c-1.6,0.4-2.9,1-4.2,1.8c-1.2,0.8-2.2,2-2.9,3.4
		c-0.7,1.4-1.1,3.2-1.1,5.3c0,2,0.5,3.6,1.6,4.8c1,1.2,2.4,2.2,4.2,3c1.7,0.8,3.7,1.4,5.9,1.9c2.2,0.5,4.4,1.1,6.7,1.7
		c2.3,0.6,4.5,1.3,6.7,2.1c2.2,0.8,4.2,1.9,5.9,3.3c1.7,1.4,3.1,3.1,4.2,5.2c1,2.1,1.6,4.8,1.6,8c0,3.4-0.7,6.4-2.1,8.8
		c-1.4,2.4-3.1,4.4-5.3,6c-2.2,1.5-4.6,2.7-7.2,3.3c-2.7,0.7-5.3,1-7.9,1c-3.2,0-6.3-0.5-9.2-1.4c-2.9-0.9-5.4-2.3-7.6-4.1
		c-2.2-1.8-3.9-4.2-5.2-7.1c-1.3-2.9-1.9-6.3-1.9-10.2h7.3c0,2.7,0.5,5.1,1.4,7c0.9,2,2.2,3.6,3.7,4.8c1.5,1.3,3.3,2.2,5.4,2.8
		c2,0.6,4.1,0.9,6.3,0.9c1.7,0,3.5-0.2,5.2-0.5c1.7-0.4,3.3-1,4.7-1.9c1.4-0.9,2.5-2.1,3.4-3.6c0.9-1.5,1.3-3.4,1.3-5.8
		c0-2.2-0.5-4-1.6-5.4c-1-1.4-2.4-2.5-4.2-3.4c-1.7-0.9-3.7-1.6-5.9-2.1c-2.2-0.5-4.4-1.1-6.7-1.7c-2.3-0.6-4.5-1.2-6.7-2
		c-2.2-0.8-4.2-1.7-5.9-3c-1.7-1.2-3.1-2.8-4.2-4.8c-1-2-1.6-4.4-1.6-7.4c0-3.3,0.6-6.1,1.8-8.5c1.2-2.4,2.8-4.3,4.7-5.9
		c2-1.5,4.2-2.7,6.7-3.4c2.5-0.8,5.1-1.1,7.7-1.1c3,0,5.7,0.4,8.2,1.2c2.5,0.8,4.7,2,6.7,3.7c1.9,1.7,3.4,3.8,4.5,6.4
		c1.1,2.6,1.7,5.6,1.8,9.2h-7.3C202.9,50.1,201.4,46.7,198.9,44.6"/>
	<polygon class="st2" points="230.7,35.8 238.4,35.8 238.4,100.4 230.7,100.4 230.7,35.8 	"/>
	<polygon class="st1" points="267.4,35.8 297.7,88.2 297.9,88.2 297.9,35.8 305.1,35.8 305.1,100.4 296.7,100.4 266.7,48.6 
		266.5,48.6 266.5,100.4 259.2,100.4 259.2,35.8 267.4,35.8 	"/>
	<path class="st1" d="M360.3,99.7c-3.3,1.5-6.7,2.2-10.1,2.2c-4.3,0-8.1-0.9-11.5-2.7c-3.4-1.8-6.3-4.2-8.6-7.2
		c-2.4-3-4.2-6.5-5.4-10.4c-1.2-3.9-1.9-8-1.9-12.2c0-4.7,0.6-9.2,1.7-13.4c1.2-4.3,2.9-8,5.2-11.2c2.3-3.2,5.1-5.7,8.5-7.6
		c3.4-1.9,7.4-2.9,12-2.9c3.1,0,6.1,0.4,8.8,1.2c2.8,0.8,5.2,2.1,7.4,3.8c2.2,1.8,4,4,5.5,6.7c1.5,2.7,2.5,5.9,3,9.7h-7.7
		c-0.4-2.5-1.1-4.6-2.1-6.4c-1-1.8-2.3-3.2-3.8-4.4c-1.5-1.1-3.2-2-5.1-2.6c-1.9-0.6-3.9-0.9-6.1-0.9c-3.5,0-6.5,0.8-9,2.4
		c-2.5,1.6-4.5,3.6-6.1,6.2c-1.6,2.6-2.8,5.5-3.5,8.8c-0.8,3.3-1.1,6.7-1.1,10.1c0,3.4,0.4,6.6,1.3,9.7c0.9,3.1,2.1,5.9,3.8,8.2
		c1.7,2.4,3.7,4.3,6.2,5.7c2.4,1.4,5.3,2.1,8.5,2.1c3,0,5.7-0.5,8-1.6c2.3-1.1,4.3-2.6,5.8-4.5c1.6-1.9,2.8-4.1,3.6-6.7
		c0.8-2.6,1.2-5.3,1-8.3h-18.4v-7.2h25.2v34h-4.8l-2-8.1C366.4,95.8,363.6,98.2,360.3,99.7"/>
	<path class="st1" d="M435,95.7c-3.9,4.1-9.5,6.2-16.8,6.2c-7.4,0-13.2-2-17.4-5.9c-4.2-4-6.2-10.2-6.2-18.9V35.8h7.7v41.3
		c0,5.8,1.4,10.2,4.1,13.2c2.7,3,6.7,4.5,11.9,4.5c4.9,0,8.6-1.5,11.2-4.5c2.6-3,3.8-7.4,3.8-13.2V35.8h7.7v41.3
		C440.8,85.4,438.9,91.6,435,95.7"/>
	<polygon class="st1" points="468.8,35.8 468.8,93.2 499.3,93.2 499.3,100.4 461.2,100.4 461.2,35.8 468.8,35.8 	"/>
	<path class="st1" d="M543.5,73.7l-9.6-30.1h-0.2L524,73.7H543.5L543.5,73.7z M538.2,35.8l22.5,64.6h-8.5L545.9,81h-24.4l-6.5,19.5
		h-7.8l22.4-64.6H538.2L538.2,35.8z"/>
	<path class="st1" d="M603.1,65.1c1.6-0.3,3-0.9,4.2-1.8c1.2-0.9,2.2-2.1,2.9-3.5c0.7-1.5,1.1-3.4,1.1-5.7c0-3.3-0.8-5.9-2.4-8
		c-1.6-2.1-4.2-3.1-7.8-3.1h-19v22.5h16C599.8,65.6,601.5,65.4,603.1,65.1 M601.5,35.8c5.5,0,9.8,1.5,12.9,4.5
		c3.1,3,4.6,7.1,4.6,12.4c0,3.9-0.8,7.4-2.4,10.3c-1.6,3-4.1,5-7.6,6.1v0.2c1.7,0.4,3,1,4.1,1.8c1,0.8,1.9,1.9,2.5,3
		c0.6,1.2,1.1,2.5,1.4,3.9c0.3,1.4,0.5,3,0.7,4.5c0.1,1.6,0.2,3.2,0.2,4.8c0.1,1.6,0.2,3.2,0.4,4.8c0.2,1.6,0.5,3.1,0.9,4.5
		c0.4,1.4,1,2.7,1.8,3.8h-8.5c-0.5-0.7-0.9-1.6-1.1-2.7c-0.2-1.1-0.3-2.4-0.4-3.8c-0.1-1.4-0.1-2.9-0.2-4.6
		c-0.1-1.6-0.2-3.2-0.5-4.8c-0.2-1.6-0.5-3.1-0.8-4.5c-0.3-1.4-0.8-2.7-1.5-3.7c-0.7-1.1-1.6-1.9-2.7-2.5c-1.1-0.6-2.6-1-4.5-1
		h-18.7v27.6h-7.7V35.8H601.5L601.5,35.8z"/>
	<polygon class="st1" points="630.1,43.1 630.1,35.8 676.2,35.8 676.2,43.1 657,43.1 657,100.4 649.3,100.4 649.3,43.1 630.1,43.1 	
		"/>
</g>
</svg>
